<svg xmlns="http://www.w3.org/2000/svg" width="247.9" height="237.2" viewBox="126.1 131.4 247.9 237.2"><path d="m280 131 11 21c5 9 5 9 17 18l17 18c5 6 8 14 14 37 4 13 6 28 5 28l-4-8c-5-13-8-20-15-30-4-7-10-14-17-20l-13-9c-1 0 3 11 9 20l15 20c8 11 12 18 16 27 5 12 7 23 4 30a1454 1454 0 0 0-12 31v-10c1-20-2-33-8-45-3-6-5-8-13-14l-8-4 3 6c5 12 7 15 7 24 0 5 0 5 4 12 5 11 8 20 8 28l-1 8c-2 3-3 5-11 12a450 450 0 0 0-12 10l3-7c5-10 6-11 6-18 0-5-1-5-2-9l-9-11-6-1-13 1 7 7c4 2 8 6 10 11l1 8c0 5 0 6-2 10-6 12-25 30-37 32-5 1-9 0-16-4s-14-9-20-15c-3-4-6-8-6-13l-2-11c0-6 0-7 2-10l4-5c2-3 8-6 11-7l2-1-5-3c-8-3-18-1-22 4-3 3-3 4-3 9 0 10 2 20 6 28l2 5c-1 1-7-5-12-9-10-10-15-19-13-27l4-18 8-24 7-22c-3 0-10 5-15 11-12 15-14 28-10 56 1 7 1 8-2 4-4-4-9-15-12-25l-1-12c1-10 2-17 8-28a177 177 0 0 1 26-38l10-22-10 6-17 17c-4 4-6 9-17 37-3 9-4 10-4 5l4-26 1-5c3-11 8-24 13-31 3-6 7-9 16-17 12-10 12-10 20-25l8-14 1-2-3 1-23 10-9 4c-1 1-2 1-2 4a6152 6152 0 0 1-29 74v-9c0-10 1-16 4-31 3-13 4-17 4-27l1-11c0-2 0-2-2 1l-9 14-7 11v3a316 316 0 0 0 3 37 1003 1003 0 0 0 5 51l-1 1-1-1c-3-3-4-6-6-13l-8-30-10-29a271 271 0 0 0 0 42l8 15 8 15 7 13 17 33 5 9c0 1-14-14-26-29l-8-10-7-9-4-4c0 15 6 30 18 41 7 6 11 9 29 18 15 9 17 10 21 14l3 4c0 1-2 2-4 1l-19-6-10-4c-12-5-25-11-36-18l1 7c2 4 5 9 9 12s11 7 17 9l29 6c25 3 38 6 52 14 6 3 10 4 18 3 10-1 16-3 26-10l7-3 8-1c28-3 50-8 63-15 7-4 8-4 9-10l3-8 1-4-12 7-22 12a1216 1216 0 0 0-34 8 1161 1161 0 0 1 58-40c5-5 5-5 8-21l3-15-5 6-14 20-4 5a70 70 0 0 1-22 19l5-9 4-8 7-12c17-28 24-42 27-49l2-5v-9l1-22c0-15 0-15-3-8-4 9-9 28-12 42l-9 27 1-26 1-23 1-22v-21c0-2-14-25-16-27v17c1 11 1 14 4 25 4 10 5 16 5 25 1 11 0 17-1 14l-10-26-8-23-6-16c-4-13-5-14-10-16l-13-6-18-9m-25 56c-3 0-6 1-10 4-15 7-20 13-22 24-2 5-2 17-1 21 5 18 18 28 35 27 11-1 20-5 21-9 1-3 0-3-6-1-9 3-16 3-23-1s-12-11-14-22c-3-15 0-27 9-33 5-4 13-4 20-1 6 2 9 5 9 11 0 3 0 4 2 4l1-1 1-7 2-10v-2l-3-2-6-2h-15" style="fill:#466e45;stroke-width:.1"/></svg>