<svg xmlns="http://www.w3.org/2000/svg" viewBox="0 0 500 500"><g transform="matrix(.09955 0 0 -.09942 -552.79 882.24)"><path d="M8665.76 8855.22c0-17.85 75.42-167.03 221.44-435.98 104.02-193.28 97.35-185.97 341.69-384.48 113.57-92.46 268.18-257.42 342.64-365.61 93.53-136.59 150.8-297.34 275.8-782.68 71.61-276.27 125.05-588.31 99.3-588.31-16.23 0-35.35 42.03-81.14 173.36-91.61 268.93-159.39 412.86-291.12 625.07-117.39 188.05-205.18 291-355.98 417.04-83.98 69.38-243.4 192.26-251 192.26-28.64 0 67.74-219.53 179.38-408.65 88.81-150.24 140.32-226.92 292.05-431.77 165.17-223.8 247.24-364.56 325.49-555.74 106.88-264.75 137.45-489.54 84-631.42-45.82-123.93-218.58-611.42-218.58-618.76 0-4.2-6.67-16.81-14.32-28.38-13.36-17.82-14.31 1.09-8.58 205.93 11.45 420.21-30.55 681.81-149.85 936.05-63.92 136.58-106.91 180.71-274.87 289.98-81.13 52.51-150.8 94.5-152.7 91.38-2.9-3.16 19.09-57.78 49.64-122.91 116.43-253.22 138.39-327.8 148.86-502.18 6.71-111.36 6.71-112.38 69.72-247.94 114.52-244.77 163.17-421.26 163.17-591.48.95-89.27-3.82-121.83-20.05-168.06-25.75-71.45-54.38-104.04-212.84-247.98-69.66-63.01-152.71-139.69-184.21-170.14-32.43-29.46-59.15-50.46-61.04-45.18-.95 4.21 29.54 72.48 67.72 150.24 101.19 202.74 106.92 222.67 106.92 361.4 0 114.52-.93 117.65-38.18 199.59-40.07 88.22-113.57 179.66-183.24 228-34.36 24.13-51.54 28.34-109.77 28.34-135.52 0-255.75-12.62-255.75-27.36 0-25.16 51.52-79.8 132.66-139.71 100.21-74.57 160.35-143.92 197.55-226.88 25.75-58.83 27.68-71.46 27.68-178.64 0-113.45-.95-117.63-39.14-204.82-115.47-265.78-512.5-628.24-738.74-672.37-103.07-21.03-192.8 1.08-334.02 78.79-138.39 76.7-270.12 187.02-387.51 322.53-87.8 102.98-99.28 125.02-134.52 266.81-22.01 87.2-25.83 125.04-26.76 235.33 0 127.15.93 134.51 30.53 199.65 17.18 37.81 51.54 90.33 76.37 117.65 50.56 53.56 157.48 124.98 220.45 146 21.95 6.34 40.09 15.78 40.09 19.99 0 17.85-40.09 43.07-100.21 64.11-155.57 53.54-346.46 12.6-439.05-92.46-54.38-62.04-63.93-89.34-62.98-188.08 0-201.69 45.8-420.23 125.06-594.63 21.93-46.19 37.2-89.27 36.22-94.53-4.75-14.73-143.17 95.59-232.87 185.91-205.2 205.93-294.89 398.17-270.09 574.7 8.57 55.67 69.68 290.97 95.43 361.37 5.73 16.86 76.37 244.75 156.52 506.37 117.45 381.36 143.17 474.85 129.82 474.85-58.22-1.02-197.57-116.6-296.84-246.9-230.01-300.45-277.73-573.56-204.23-1163.98 20.02-155.5 17.18-160.78-40.09-95.62-80.19 91.39-179.41 325.69-228.09 540.01-23.87 100.88-25.78 122.91-21.03 252.1 7.64 208.04 43.91 344.6 156.52 587.27 96.42 208 251.06 452.8 435.25 687.08 32.45 42.03 70.6 92.41 84.89 113.48 28.67 43.07 218.61 461.19 209.06 461.19-13.36 0-121.23-72.5-203.33-136.61-107.84-84.02-270.09-244.75-345.47-342.47-72.56-93.48-118.32-201.69-335.01-788.96-72.52-197.48-80.16-209.08-81.12-113.49 0 94.59 22.92 305.76 47.74 446.52 11.45 59.88 21.92 112.4 23.85 115.58 1.89 3.1 14.3 52.48 27.69 109.23 52.47 217.47 160.32 493.78 251.93 646.09 65.87 111.37 134.6 185.94 324.53 354.03 242.42 214.35 240.53 212.23 399.9 511.64 76.34 146 148.88 284.71 161.32 307.81l21.93 44.12-68.73-24.16c-67.75-24.21-166.05-69.36-455.23-212.2-81.17-39.97-161.3-78.8-178.51-86.14-24.79-11.58-33.38-24.18-49.61-72.5-22.91-75.66-352.19-1033.73-430.44-1257.53-32.45-92.45-71.56-202.74-86.86-245.85-14.3-41.96-28.62-78.75-31.51-81.91-1.88-3.15-9.51 6.31-17.18 19.96-8.56 17.85-12.38 70.37-11.42 192.26.95 201.69 20.97 342.49 89.72 645.04 63.94 282.61 74.43 356.1 81.12 579.9 2.83 106.1 7.63 208 9.51 224.8 3.82 31.48 3.82 31.48-37.2-17.82-21.96-26.3-105.96-158.66-185.16-293.16l-145.07-243.69v-60.97c0-33.6 12.38-191.17 27.71-347.69 16.23-157.57 33.33-345.61 39.08-418.17 5.71-72.45 21.01-242.65 34.4-378.18 45.79-478 61.99-666.05 59.15-697.55l-2.86-32.56-33.38 37.79c-44.9 49.39-79.29 122.91-123.18 258.45-34.33 106.11-133.58 528.44-148.85 633.49-14.35 94.57-187.07 609.33-205.18 609.33-7.67 0-22.94-510.61-15.28-523.18 2.81-5.26 5.7-77.73 6.68-160.75 0-91.41 5.73-167.01 13.31-190.16 11.49-38.87 35.35-85.07 163.24-328.81 37.23-69.32 108.82-209.06 160.32-309.91 51.6-100.85 112.64-219.58 134.57-262.62 68.75-134.49 143.18-283.67 205.2-409.74 33.44-66.19 98.32-197.49 144.15-292.06 46.74-94.56 84.92-174.4 84.92-178.6 0-20.99-263.4 292.08-510.59 607.25-52.51 66.19-126.94 161.77-167.03 211.16-39.14 49.33-103.09 130.25-142.23 180.68-38.15 50.45-72.55 91.38-75.39 91.38-1.87 0-1.87-50.4.96-112.41 13.37-268.97 142.21-536.85 361.76-750.06 130.7-128.17 224.25-191.22 570.71-385.58 313.05-175.42 357.89-205.87 432.34-289.94 35.35-39.93 63.01-77.74 61.1-84.05-6.68-23.08-49.62-37.81-87.83-31.53-40.99 7.37-253.83 87.23-369.37 139.71-38.13 16.84-131.68 57.83-208.01 90.39-286.32 123.96-497.29 227.94-640.45 315.17-42.96 26.25-80.13 47.25-83.02 47.25-8.62 0 6.65-92.43 26.73-150.23 25.75-75.6 99.22-181.74 168-241.59 80.13-69.34 220.43-146.02 356.91-194.36 132.66-47.31 314.96-84.07 582.19-117.68 495.35-62.01 753.99-137.6 1036.52-301.49 117.38-68.3 190.89-81.95 356.01-66.19 201.39 19.96 331.18 70.34 533.51 206.95 54.41 36.76 109.74 71.45 122.18 76.68 13.34 6.32 93.53 17.87 178.48 26.28 559.25 56.71 995.45 161.77 1261.84 305.7 139.3 74.6 150.7 87.22 182.2 199.59 13.4 51.52 35.3 128.2 47.7 171.25 12.4 43.07 21 79.86 19.1 83.02-5.8 6.28-64.9-29.43-230-139.75-178.5-118.7-380.85-229.01-448.61-245.82-52.47-13.68-323.54-93.51-534.45-159.7-152.71-46.2-166.1-48.33-147.94-24.14 21.93 27.3 713.88 529.46 911.5 660.78 119.3 78.79 186.1 130.31 246.2 190.13 101.2 99.83 103.1 102.95 177.5 439.16 37.2 167.04 65.9 306.79 62.1 309.91-5.8 6.28-64.9-61.95-103.1-119.75-43.9-65.14-250.1-364.56-285.4-412.86-19.1-27.33-52.5-73.59-73.5-102.98-80.15-116.6-187.03-225.87-314.96-323.59-70.58-54.59-129.79-94.54-131.7-90.32-3.75 12.62 41.05 108.2 87.8 189.09 22.94 37.85 66.82 115.57 98.33 173.36 31.47 57.77 93.51 171.21 138.38 252.13 328.25 596.73 475.35 879.32 534.45 1025.34l39.2 98.75 7.6 199.59c3.8 110.32 8.6 321.51 10.5 469.61 3.8 306.78 3.8 307.84-61.1 155.46-82.1-193.28-187.1-591.43-231.8-877.18-22-135.53-158.6-572.6-180.6-572.6-10.4 0-2.8 253.22 17.2 551.56 7.7 115.58 19.2 335.16 24.9 488.51 5.7 153.4 14.3 356.17 19.1 451.77 13.3 245.82 11.4 387.64-3.9 445.41-11.4 41-279.57 517.95-317.75 563.16-16.23 18.87-16.23-53.63-2.87-344.66 11.45-241.62 21-295.21 84.96-524.17 63.95-226.97 83.94-342.49 94.5-544.22 11.46-216.42 0-343.52-25.8-277.32-67.77 176.48-115.5 311.98-187.07 534.71-34.36 105.03-100.21 298.37-165.09 483.24-21.99 60.95-75.41 214.34-120.27 341.5-91.65 260.49-104.98 281.5-211.88 329.83-30.57 14.74-142.2 70.4-247.21 125.01-306.33 159.69-367.46 190.16-367.46 184.9m-502-1158.74c-69.68-12.66-111.66-29.43-209.05-83.02-287.25-159.68-389.39-277.36-443.75-511.67-24.85-106.05-27.69-354-4.83-450.61 88.78-371.96 347.42-582.04 691.04-560.01 233.82 14.73 415.17 97.73 435.19 198.58 11.45 57.77-4.75 58.82-122.14 13.65-182.3-70.41-321.66-65.11-467.67 17.88-138.39 78.81-232.89 237.43-274.89 460.14-59.18 321.45.95 576.74 166.05 696.5 108.84 79.86 273.94 92.46 417.09 31.5 121.21-50.38 171.84-122.88 171.84-244.74 0-60.96 9.51-75.62 43.9-71.48l27.63 3.18 20.08 157.6c11.45 86.13 22.88 179.63 25.74 206.93l5.73 49.38-59.19 31.52c-32.4 17.91-86.83 36.81-121.2 42.01-92.57 15.79-246.21 22.07-301.57 12.66"/></g></svg>