<svg xmlns="http://www.w3.org/2000/svg" viewBox="0 0 500 500"><g transform="matrix(.09955 0 0 -.09942 -552.79 882.24)"><path d="M8312.98 8847.56c0-6.28 27.65-58.75 81.19-153.34 38.14-67.98 35.69-65.41 125.28-135.23 41.64-32.52 98.33-90.54 125.63-128.59 34.29-48.04 55.29-104.58 101.12-275.28 26.26-97.17 45.85-206.92 36.41-206.92-5.95 0-12.96 14.78-29.75 60.97-33.59 94.59-58.44 145.21-106.74 219.85-43.04 66.14-75.23 102.35-130.52 146.68-30.79 24.4-89.24 67.62-92.03 67.62-10.5 0 24.84-77.21 65.77-143.73 32.56-52.84 51.45-79.81 107.08-151.86 60.56-78.71 90.65-128.22 119.34-195.46 39.19-93.12 50.4-172.18 30.8-222.08-16.8-43.59-80.14-215.05-80.14-217.63 0-1.48-2.45-5.91-5.25-9.98-4.9-6.27-5.25.38-3.15 72.43 4.2 147.79-11.2 239.8-54.94 329.22-23.44 48.04-39.2 63.56-100.78 101.99-29.75 18.47-55.29 33.24-55.99 32.14-1.06-1.11 7-20.32 18.2-43.23 42.69-89.06 50.74-115.29 54.58-176.62 2.46-39.17 2.46-39.53 25.56-87.21 41.99-86.09 59.83-148.16 59.83-208.03.35-31.4-1.4-42.85-7.35-59.11-9.44-25.13-19.94-36.59-78.04-87.22-25.54-22.16-55.99-49.13-67.54-59.84-11.89-10.36-21.69-17.75-22.38-15.89-.35 1.48 10.83 25.49 24.83 52.84 37.1 71.31 39.2 78.32 39.2 127.11 0 40.28-.34 41.38-14 70.2-14.69 31.03-41.64 63.19-67.18 80.19-12.6 8.49-18.9 9.97-40.25 9.97-49.69 0-93.77-4.44-93.77-9.62 0-8.85 18.89-28.07 48.64-49.14 36.74-26.23 58.79-50.62 72.43-79.8 9.44-20.69 10.15-25.13 10.15-62.83 0-39.9-.35-41.37-14.35-72.04-42.34-93.48-187.91-220.96-270.86-236.48-37.79-7.4-70.69.38-122.47 27.71-50.74 26.98-99.04 65.78-142.08 113.44-32.19 36.22-36.4 43.97-49.32 93.84-8.07 30.67-9.47 43.98-9.81 82.77 0 44.72.34 47.31 11.19 70.22 6.3 13.3 18.9 31.77 28 41.38 18.54 18.84 57.74 43.96 80.83 51.35 8.05 2.23 14.7 5.55 14.7 7.03 0 6.28-14.7 15.15-36.74 22.55-57.04 18.83-127.03 4.43-160.98-32.52-19.94-21.82-23.44-31.42-23.09-66.15 0-70.94 16.79-147.8 45.85-209.14 8.04-16.25 13.64-31.4 13.28-33.25-1.74-5.18-52.49 33.62-85.38 65.39-75.24 72.43-108.12 140.04-99.03 202.13 3.14 19.58 25.55 102.34 34.99 127.1 2.1 5.93 28 86.08 57.39 178.1 43.06 134.13 52.49 167.01 47.6 167.01-21.35-.36-72.44-41.01-108.84-86.84-84.33-105.67-101.83-201.73-74.88-409.39 7.34-54.69 6.3-56.55-14.7-33.63-29.4 32.14-65.78 114.55-83.63 189.93-8.75 35.48-9.45 43.23-7.71 88.67 2.8 73.17 16.1 121.2 57.39 206.55 35.35 73.16 92.05 159.26 159.58 241.66 11.9 14.78 25.89 32.5 31.13 39.91 10.51 15.15 80.15 162.21 76.65 162.21-4.9 0-44.45-25.5-74.55-48.05-39.54-29.55-99.03-86.08-126.67-120.45-26.6-32.88-43.38-70.94-122.83-277.49-26.59-69.46-29.39-73.54-29.74-39.92 0 33.27 8.4 107.54 17.5 157.05 4.2 21.06 8.04 39.53 8.75 40.65.69 1.09 5.24 18.46 10.15 38.42 19.24 76.49 58.78 173.67 92.37 227.24 24.15 39.17 49.35 65.4 118.99 124.52 88.88 75.39 88.19 74.64 146.62 179.95 27.99 51.35 54.59 100.14 59.15 108.26l8.04 15.52-25.2-8.5c-24.84-8.51-60.88-24.39-166.91-74.63-29.76-14.06-59.14-27.72-65.45-30.3-9.09-4.07-12.24-8.5-18.19-25.5-8.4-26.61-129.13-363.58-157.82-442.29-11.9-32.52-26.24-71.31-31.85-86.47-5.24-14.76-10.49-27.7-11.55-28.81-.69-1.11-3.49 2.22-6.3 7.02-3.14 6.28-4.54 24.75-4.19 67.62.35 70.94 7.69 120.46 32.9 226.87 23.44 99.4 27.29 125.25 29.74 203.96 1.04 37.32 2.8 73.16 3.49 79.07 1.4 11.07 1.4 11.07-13.64-6.27-8.05-9.25-38.85-55.8-67.89-103.11l-53.19-85.71v-21.44c0-11.82 4.54-67.24 10.16-122.29 5.95-55.42 12.22-121.56 14.33-147.08 2.09-25.48 7.7-85.34 12.61-133.01 16.79-168.12 22.73-234.26 21.69-245.34l-1.05-11.45-12.24 13.29c-16.46 17.37-29.07 43.23-45.16 90.9-12.59 37.32-48.98 185.86-54.58 222.81-5.26 33.26-68.59 214.31-75.23 214.31-2.81 0-8.41-179.59-5.6-184.01 1.03-1.85 2.09-27.34 2.45-56.54 0-32.15 2.1-58.74 4.88-66.88 4.21-13.67 12.96-29.92 59.85-115.65 13.65-24.38 39.9-73.53 58.78-109 18.92-35.47 41.3-77.23 49.34-92.37 25.21-47.3 52.5-99.77 75.24-144.11 12.26-23.28 36.05-69.46 52.85-102.72 17.14-33.26 31.14-61.34 31.14-62.82 0-7.38-96.58 102.73-187.21 213.58-19.25 23.28-46.54 56.9-61.24 74.27-14.35 17.35-37.8 45.81-52.15 63.55-13.99 17.74-26.6 32.14-27.64 32.14-.69 0-.69-17.73.35-39.54 4.9-94.6 52.14-188.82 132.64-263.81 47.92-45.08 82.22-67.25 209.25-135.61 114.78-61.7 131.22-72.41 158.52-101.98 12.96-14.04 23.1-27.34 22.4-29.56-2.45-8.12-18.19-13.3-32.2-11.09-15.03 2.59-93.07 30.68-135.43 49.14-13.98 5.92-48.28 20.34-76.27 31.79-104.98 43.6-182.33 80.17-234.82 110.85-15.75 9.23-29.38 16.62-30.44 16.62-3.16 0 2.44-32.51 9.8-52.84 9.44-26.59 36.38-63.92 61.6-84.97 29.38-24.39 80.82-51.36 130.86-68.36 48.64-16.64 115.48-29.57 213.46-41.39 181.62-21.81 276.45-48.4 380.04-106.04 43.04-24.02 69.99-28.82 130.53-23.28 73.84 7.02 121.43 24.74 195.61 72.79 19.95 12.93 40.24 25.13 44.8 26.97 4.89 2.22 34.29 6.28 65.44 9.24 205.05 19.95 364.98 56.9 462.62 107.52 51.09 26.24 55.28 30.68 66.82 70.2 4.91 18.12 12.96 45.09 17.5 60.23 4.56 15.15 7.71 28.09 7.01 29.2-2.1 2.21-23.8-10.35-84.33-49.15-65.44-41.75-139.64-80.55-164.48-86.46-19.24-4.81-118.63-32.89-195.96-56.17-55.99-16.25-60.9-17-54.24-8.49 8.04 9.6 261.74 186.22 334.19 232.41 43.74 27.71 68.24 45.83 90.28 66.87 37.1 35.11 37.79 36.21 65.08 154.46 13.64 58.75 24.15 107.9 22.76 109-2.1 2.21-23.79-21.79-37.81-42.12-16.09-22.91-91.68-128.22-104.61-145.21-7.01-9.61-19.27-25.88-26.96-36.22-29.39-41.01-68.58-79.44-115.48-113.81-25.88-19.2-47.59-33.25-48.29-31.77-1.38 4.44 15.05 38.06 32.19 66.51 8.41 13.31 24.5 40.65 36.05 60.97 11.54 20.32 34.29 60.22 50.74 88.68 120.38 209.88 174.27 309.27 195.97 360.63l14.35 34.73 2.8 70.2c1.39 38.8 3.15 113.08 3.84 165.17 1.41 107.9 1.41 108.27-22.39 54.68-30.1-67.98-68.6-208.02-85.03-308.52-8.05-47.67-58.09-201.39-66.15-201.39-3.84 0-1.04 89.06 6.3 193.99 2.79 40.65 7.01 117.88 9.1 171.82 2.1 53.95 5.24 125.27 7.01 158.89 4.89 86.46 4.18 136.34-1.42 156.66-4.19 14.42-102.52 182.17-116.52 198.07-5.95 6.64-5.95-18.86-1.05-121.22 4.2-84.98 7.7-103.83 31.15-184.36 23.45-79.83 30.78-120.46 34.65-191.41 4.18-76.12 0-120.82-9.46-97.54-24.85 62.07-42.35 109.73-68.59 188.07-12.6 36.94-36.74 104.94-60.53 169.96-8.06 21.44-27.65 75.39-44.1 120.11-33.6 91.62-38.49 99.01-77.68 116.01-11.21 5.18-52.14 24.76-90.64 43.97-112.32 56.16-134.73 66.88-134.73 65.03m-184.06-407.55c-25.55-4.45-40.94-10.35-76.65-29.2-105.32-56.16-142.77-97.55-162.7-179.96-9.11-37.3-10.15-124.51-1.77-158.49 32.55-130.82 127.38-204.71 253.37-196.96 85.73 5.18 152.22 34.37 159.56 69.84 4.2 20.32-1.74 20.69-44.78 4.8-66.84-24.76-117.94-22.9-171.47 6.29-50.74 27.72-85.39 83.51-100.79 161.84-21.7 113.06.35 202.85 60.88 244.97 39.91 28.09 100.44 32.52 152.93 11.08 44.44-17.72 63-43.22 63-86.08 0-21.44 3.49-26.6 16.1-25.14l10.13 1.12 7.36 55.43c4.2 30.29 8.39 63.18 9.44 72.78l2.1 17.37-21.7 11.08c-11.88 6.3-31.84 12.95-44.44 14.78-33.94 5.55-90.27 7.76-110.57 4.45" style="fill:#466e45"/><g style="pointer-events:none" transform="matrix(.34838 0 0 .36855 5303.938 3620.807)"><path d="M4382 8344c-276-74-411-403-276-673 58-117 166-200 303-233 134-32 376-21 422 18 25 23 54 214 29 199-5-3-14-23-20-45-26-97-102-135-258-128-81 4-108 9-162 35-117 54-190 140-230 272-19 61-22 88-17 165 7 127 27 184 88 250 73 80 129 100 279 100 96 0 124-4 172-22 72-29 113-74 122-136 4-25 11-46 15-46 11 0 24 211 14 221-34 34-380 51-481 23M5319 8337c-122-42-229-148-283-281-30-76-29-268 2-347 30-75 79-143 144-195 78-65 142-86 270-92 179-7 289 39 394 167 90 109 128 253 106 398-28 175-130 295-302 353-86 29-241 28-331-3m297-57c79-36 129-86 170-174 73-154 66-367-15-493-60-93-152-143-266-143-209 0-360 171-373 421-12 237 89 387 282 418 72 12 132 3 202-29M6175 8348c-2-7-6-202-7-434-3-459-2-450-61-456-18-2-32-7-32-13s52-10 135-10c82 0 136 4 138 10 1 6-14 11-34 13-58 5-62 25-74 383-5 172-8 314-6 316 1 2 74-77 162-174 193-215 522-553 539-553 21 0 25 79 25 474 0 210 4 387 9 394 4 7 20 16 34 20 63 17 27 27-100 30-113 2-133 0-133-13 0-10 10-15 33-15 73 0 75-8 82-381l7-324-84 85c-45 47-155 164-243 260-261 284-366 395-376 398-5 2-11-2-14-10M7175 8284c-17-75-13-106 9-70 33 58 45 62 176 70 72 4 127 3 132-2 6-6 8-168 6-393-3-411-5-425-53-431-14-2-27-7-28-13s52-10 143-10c88 0 146 4 148 10 1 6-13 11-32 13-62 6-61-4-64 434l-3 398h28c15-1 72-5 125-9 106-8 138-24 138-68 0-50 19-20 25 41 11 102 13 100-80 95-131-7-525-5-592 3l-61 7zM9468 8355c-3-3-112-6-244-8-153-1-238-6-237-12 1-5 16-13 33-16 18-4 37-12 43-18 9-9 12-122 12-410 0-424 0-426-48-433-12-2-22-7-22-12s106-11 236-13c199-4 237-2 248 11 13 15 28 156 17 156-4 0-15-20-26-44-26-61-48-71-157-70-137 0-133-7-133 220 0 101 3 185 8 187 4 2 51 1 105-3 104-6 112-10 124-62 7-37 23-36 23 1 0 15 3 56 7 91l6 62-24-15c-16-10-63-18-136-22l-113-7v352h83c88 0 156-14 162-33 2-7 6-25 10-41 10-45 22-18 30 67 6 73 5 84-7 72M10862 8223c-28-76-86-232-128-348-42-115-88-241-102-280-45-125-70-147-129-116-21 12-47 29-58 38-32 28-136 150-209 245l-66 86 50 57c65 75 93 149 88 232-5 84-42 136-123 178l-59 30h-203c-121 0-204-4-205-10-2-5 13-12 32-16 61-13 60-7 60-413 0-402-4-443-46-448-13-2-26-7-27-13-3-13 277-13 281 0 1 6-16 11-38 13-55 4-61 23-63 207l-2 150h158l113-149c178-233 173-230 391-231 102 0 163 4 164 10 0 6-10 12-23 15-37 9-34 59 14 200l43 125 135 3 136 3 18-53c11-29 37-98 58-152 23-60 37-108 34-121-5-20-1-23 41-29 25-3 79-6 119-6 59 0 74 3 74 15 0 10-10 15-29 15-68 0-94 45-231 405-188 493-189 495-205 495-6 0-35-62-63-137m-772 59c34-13 51-29 75-66 28-47 30-55 30-150 0-88-3-106-23-137-32-52-80-73-157-67-110 9-105-2-105 228 0 149 3 200 13 203 27 12 125 5 167-11m886-302c24-69 44-128 44-132 0-5-49-8-110-8-72 0-110 4-110 11 0 6 24 81 52 166l53 155 13-33c8-19 34-90 58-159M11653 8350c-46-15-119-90-132-136-22-80-6-164 44-230 14-18 76-78 139-133 92-81 117-109 135-152 52-120-19-229-151-229-102 0-156 41-173 133-15 80-39 18-33-88l3-60 45-17c66-25 194-24 264 3 94 35 157 132 155 238-1 99-48 167-199 292-120 99-150 141-150 209 0 87 49 130 147 130 84-1 124-24 143-80 18-56 19-58 30-40 14 21 12 147-1 156-19 11-231 14-266 4M8077 8344c-12-12 4-24 33-24 61 0 60 7 60-420 0-221-4-399-9-414-7-17-19-26-38-28-15-2-27-7-26-13 4-13 283-13 283 0 0 6-15 11-35 13-59 5-65 24-65 204v158h73c86 0 74 10 204-165 149-199 198-231 352-223 72 4 81 20 16 30-84 12-143 65-308 276l-87 112 45 49c96 102 124 235 70 327-32 54-97 98-166 113-53 12-391 15-402 5m358-55c82-23 128-106 127-232 0-50-6-79-24-115-32-65-72-85-158-78-108 8-100-11-100 220 0 112 3 206 7 209 10 11 104 8 148-4M7902 6842c-72-26-115-64-153-136-27-50-22-122 11-191 23-47 23-49 5-59-31-18-95-89-122-134-34-58-42-158-19-230 19-56 78-122 141-155 33-17 58-21 140-21 88 0 107 3 158 26 32 15 75 41 95 58 20 16 41 30 45 30 5 0 30-15 56-34 80-58 105-67 207-71 95-4 128 0 119 15-3 4-21 11-42 15-51 9-147 59-216 112l-58 45 21 31c47 70 84 162 88 218 5 66 1 69-110 69-70 0-91-13-38-25 17-4 38-18 47-32 15-22 15-34 5-93-11-66-39-140-52-140s-277 267-321 325c-91 119-112 202-69 273 70 115 254 84 276-47 15-93 33-71 37 46l2 78-36 18c-57 27-154 31-217 9m-70-439c19-31 181-199 271-282 55-50 57-54 42-71-25-28-108-60-172-66-77-8-160 22-203 74-82 100-79 266 6 346 16 14 31 26 34 26s13-12 22-27M4487 5343c-3-5-28-71-56-148-57-155-82-223-169-460-33-88-65-176-71-196-15-47-52-81-97-88-20-3-36-10-35-16 0-6 52-10 131-10s131 4 132 10-11 12-28 15c-43 7-41 35 8 185l44 130h278l58-154c43-116 55-158 47-168-17-20 5-24 127-21 112 3 140 16 65 31-52 10-69 33-124 165-42 101-65 161-194 497-29 77-61 160-71 184-16 43-35 61-45 44m55-350 56-158-59-3c-33-2-84-2-114 0l-54 3 52 158c28 86 54 157 57 157 4 0 32-71 62-157M5223 5334c-97-36-155-147-132-253 16-74 57-129 166-224 55-47 111-99 126-116 74-89 54-228-39-267-74-31-196-8-229 43-10 14-20 45-23 70-11 70-26 55-36-35-7-72-6-86 9-102 28-30 83-44 175-44 72 0 93 5 136 27 56 28 109 83 130 133 20 48 17 151-5 201-26 56-86 120-198 210-128 103-162 181-113 261 62 102 280 71 280-39 0-19 5-29 15-29 12 0 15 15 15 79 0 48-4 83-11 87-6 3-59 8-118 10-78 3-117 0-148-12M6048 5339c-53-12-146-61-190-99-91-78-158-233-158-362 0-189 93-350 244-423 309-148 653 34 698 369 33 249-88 442-321 510-59 17-210 20-273 5m230-54c99-30 199-150 230-275 44-179 8-366-87-457-78-75-111-88-226-88-119 1-170 21-244 95-85 85-130 206-131 346 0 206 89 347 245 385 53 12 160 9 213-6M7125 5331c-88-26-141-56-195-113-90-95-130-196-130-333 0-322 261-519 633-477 127 14 152 28 165 89 23 108 25 143 9 143-9 0-19-17-26-44-14-56-59-102-114-117-23-6-86-9-143-7-90 3-107 7-169 37-176 87-262 263-236 483 12 106 43 171 110 229 97 86 326 102 462 34 53-27 75-59 85-124 6-38 17-51 27-33 3 4 7 54 8 112l4 104-100 18c-133 22-311 22-390-1M8605 5313c-9-21-31-81-50-133s-57-158-85-235c-29-77-75-204-103-283-56-157-84-200-136-211-19-3-36-12-39-19-3-10 26-12 130-10 80 2 133 7 132 13 0 6-13 12-30 15-43 7-41 35 9 185l44 130h276l54-140c31-81 52-153 51-170l-3-30h118c117 0 159 14 82 26-70 12-86 43-290 584-83 219-121 309-132 312-7 3-19-13-28-34m71-328c23-66 46-128 49-137 7-17-3-18-110-18-89 0-115 3-112 13 3 6 24 70 47 140 23 71 46 141 52 155l10 27 10-30c6-16 30-84 54-150M10560 5331c-82-26-144-66-201-130-116-131-152-294-103-471 49-173 184-290 371-321 236-39 471 110 534 338 22 80 25 203 5 284-45 191-229 320-458 318-60 0-113-6-148-18m283-59c97-43 181-161 208-291 17-84 7-243-21-316-33-85-114-165-194-189-73-23-181-18-248 11-97 43-178 145-214 268-22 78-22 245 0 313 36 109 102 179 199 214 71 25 202 20 270-10M11556 5340c-99-32-166-136-152-237 12-91 62-155 229-297 108-90 140-180 95-265-33-64-74-83-164-78-99 5-138 36-152 119-15 89-42 39-42-80v-53l48-22c68-31 197-30 269 2 166 74 203 286 75 425-15 15-72 66-128 112-55 46-110 101-122 123-57 101 3 211 117 211 96 0 147-29 160-91 4-18 12-34 19-37 9-3 12 18 12 76 0 67-3 81-17 87-28 12-215 16-247 5M7813 5327c-2-4 4-10 14-13 53-17 62-25 68-56 3-18 5-200 3-404-2-282-6-375-16-386-7-9-27-18-44-22-22-4-28-10-22-16 14-14 300-9 297 5-1 6-19 12-40 15-63 8-63 9-63 442v387l22 15c12 9 31 16 41 16s17 5 15 12c-5 14-266 19-275 5M9174 5331c-11-12-1-19 36-25 32-5 43-12 51-33 15-41 8-771-8-799-7-12-26-24-43-28-72-14-7-24 209-31 260-8 306-2 417 51 88 42 149 105 201 212 36 72 38 82 42 189 2 87-1 126-14 166-32 98-123 204-214 247-92 44-165 53-424 55-136 0-250-1-253-4m467-57c59-11 155-64 202-111 91-90 133-210 124-347-12-185-105-305-266-342-108-26-271-12-302 25-14 17-18 63-24 285-4 146-4 317 0 380 7 106 9 115 29 120 25 5 190-1 237-10"/></g><g style="pointer-events:none"><path d="M5808.84 5744.52c1.03-4.8 2.78-11.45 3.84-14.03 1.05-2.97-.71-8.88-4.19-13.32-7.36-9.23-184.78-116.38-202.63-122.66-11.19-4.07-13.29-3.7-20.64 3.69-10.49 10.35-13.64 4.43-4.9-9.62 3.85-5.9 17.85-33.62 31.14-61.32 29.4-60.98 54.6-92.38 89.24-110.49 19.25-9.98 25.55-11.45 53.2-11.45 36.74-.37 59.13 6.28 86.08 25.49 47.59 34.73 69.29 85.35 58.44 139.32-5.26 27.7-19.26 60.21-46.54 108.99-12.26 21.43-26.6 46.92-31.85 56.9-10.16 19.21-14.35 22.17-11.19 8.5m42.34-98.66c25.19-52.83 27.98-87.56 10.15-128.58-12.61-29.19-22.4-41.38-47.6-58.75-52.83-35.85-107.08-34.73-145.22 3.69-23.8 24.03-47.6 77.22-41.99 92.74 2.1 6.29 32.18 27.72 74.53 53.59 136.13 82.03 123.88 75.74 131.93 67.97 3.84-3.32 11.9-17.35 18.2-30.66M10362.9 5663.6c-63.7-25.5-109.5-99.02-102.8-166.28 4.6-46.18 38-98.66 76.2-119.35 48.1-25.86 103.7-25.86 142.8.38 15.8 10.34 43.8 43.22 52.6 60.96 39.1 81.29 8.3 172.93-72.2 214.69-19.8 10.35-27.6 12.18-53.6 13.3-19.2.74-34.5-.75-43-3.7m88.9-51.36c57.7-30.3 82.9-68.37 78.8-119.72-3.8-51.36-43.7-91.64-96.6-96.44-57.1-5.54-126.8 34.36-149.5 85.73-19.1 42.86-3.4 99.02 35.5 128.57 24 17.75 34.9 21.07 68.5 19.96 27.9-.73 32.2-1.84 63.3-18.1M6029.65 5367.26c1.39-4.06 3.49-12.19 4.2-18.47 1.39-10.35-1.76-13.67-53.9-57.65-76.99-64.66-129.12-105.69-137.88-108.65-4.54-1.48-9.45-.36-13.29 3.33-7.35 7.01-10.86 7.39-10.86 1.11 0-2.97 4.21-8.87 9.11-14.05 4.9-4.81 14.01-16.26 19.95-25.49 5.94-8.87 12.94-18.86 15.05-22.18 2.44-2.94 13.28-17.73 24.13-32.14 10.85-14.78 21.7-26.97 23.8-26.97 7.35.37 38.5 19.95 40.25 25.49 1.39 4.06 0 4.44-4.91 2.22-3.84-1.47-11.9-3.7-18.19-4.82-10.13-1.45-13.65.37-26.94 15.54-18.91 20.32-27.29 37.32-24.86 48.02 1.06 4.44 20.65 24.03 43.75 43.61l41.64 35.5 7.01-7.76c8.75-10.7 32.19-46.95 32.19-50.66 0-1.46-3.5-7-7.35-12.55-4.19-5.54-6.65-10.72-5.61-11.83.71-1.1 12.26 5.18 25.22 14.04l23.43 15.89-10.15 4.44c-8.75 3.7-50.03 51.75-50.03 58.04 0 2.21 74.88 64.28 79.43 65.77 3.85 1.11 29.04-30.66 36.74-47.29 5.61-11.47 4.9-18.12-3.49-28.47-9.46-11.44-2.11-10.69 17.14 1.85 10.5 6.65 19.6 12.2 20.29 12.93.71.37-9.79 14.79-23.09 31.41-13.29 17-32.89 43.23-43.74 58.38-21 30.31-34.29 44.71-29.04 31.41M10116.3 5310.72c-46.4-45.07-73.9-89.39-81.3-130.82-10.4-60.22 24.9-125.26 84.8-156.3 55-28.45 107.7-19.21 157.4 27.72 32.9 31.4 69.9 92.38 63.3 104.57-1.4 2.21-9.7 13.29-18.1 24.01-19.7 24.39-29.4 26.27-16.5 3.33 10.5-19.21 11.2-38.8 2-60.24-9.4-21.8-40.5-53.93-65-66.13-18.1-9.61-25.2-10.72-52.5-11.08-28.3 0-33.9 1.1-55.3 11.82-28.6 14.42-61.9 46.56-72.7 70.56-11.2 24.77-11.2 63.19 0 85.78 14.6 29.91 31.8 50.98 53.6 66.12 24.8 17.74 42.5 19.95 61.8 7.39 15.1-9.62 19.2-5.17 5.6 6.65-5.6 5.18-17.4 15.9-25.9 23.65-8.4 7.76-16.4 14.41-17.4 14.41-1.2-.36-12.1-9.61-23.8-21.44M6217.56 5067.2c-13.29-7.01-25.9-22.9-33.95-43.23-4.55-11.09-5.24-26.23-4.89-73.54 1.05-64.29-.71-72.78-18.55-90.14-25.19-24.77-58.09-17-78.04 18.84-11.19 19.95-11.19 33.98.36 51.36 4.9 7.76 8.04 15.14 6.98 16.26-1.74 1.84-32.19-23.29-40.23-33.64-3.49-4.41-2.81-8.48 3.14-20.68 17.16-35.84 55.65-66.5 83.65-66.5 30.44 0 60.19 19.94 74.19 50.25 7.34 16.25 7.7 20.32 5.6 75.38-1.41 33.62-.71 63.17 1.04 70.93 4.55 17.36 17.49 29.19 34.65 31.41 11.54 1.84 17.14.37 27.99-7.4 23.8-16.61 34.29-52.45 19.24-65.76-2.8-2.21-4.9-5.54-4.9-7.39 0-7.75 10.16-2.21 24.15 12.94l15.05 16.25-9.44 17c-10.85 19.21-32.91 41.39-49.7 48.77-15.05 7.02-41.99 6.29-56.34-1.11M9847.82 4993.68c-30.45-30.31-37.09-42.87-15.74-29.57 12.93 8.14 11.19 9.6 60.17-43.59 65.48-70.94 120.45-134.87 122.45-142.25 1.1-4.08-.3-9.25-3-11.83-5.3-4.45-6.7-14.42-2.2-14.42 5.6 0 67.5 69.47 64 71.69-2.1 1.47-3.9 1.11-3.9-.38 0-1.84-4.8-6.27-10.4-9.98-16.1-9.6-13.3-11.81-101.47 85-89.28 97.91-91.02 100.87-78.42 114.17 3.5 3.33 4.55 7.39 2.8 9.24-1.74 1.47-16.8-10.72-34.29-28.08M6451.32 4883.57c0-1.49 3.49-7.39 7.69-13.67 7.71-10.73 7.71-11.1 1.42-23.29-3.16-6.65-19.95-30.29-37.12-52.83-16.79-22.54-43.39-58.38-58.78-79.45-15.4-21.06-34.64-44.71-42.34-52.46-12.94-13.3-14.69-14.42-23.45-9.99-12.59 5.93-14.68 2.6-4.55-6.64 31.15-27.71 63.35-52.47 65.1-50.62 1.4 1.11-1.06 5.91-5.26 10.71-9.09 10.34-9.8 23.66-1.74 35.85 22.75 35.09 139.27 188.44 143.12 188.44 7.35 0 31.49-24.38 36.4-36.96 2.45-6.27 3.84-19.57 2.8-31.39-1.76-23.29-15.75-47.31-33.95-58.76-15.4-9.6-41.29-8.86-61.24 1.85-19.95 10.35-23.79 7.76-7.35-5.55 24.84-19.95 59.49-26.23 85.04-15.14 14.7 6.63 37.44 28.45 44.79 43.23 5.61 11.45 6.29 38.79 1.4 52.47-5.24 15.15-26.95 37.69-66.14 69.46-20.3 16.63-39.19 31.41-41.3 33.63-2.44 1.85-4.54 2.21-4.54 1.11M9638.9 4791.2c-24.84-10.73-46.89-24.76-87.83-56.9-17.86-13.68-38.14-28.83-45.15-33.27-6.98-4.43-15.04-11.08-17.49-14.42-4.55-5.53-3.86-5.9 3.85-3.31 24.49 8.13 25.89 7.75 40.93-13.31 32.2-43.59 109.9-161.09 118.99-179.21l9.8-19.2-8.4-9.23c-12.61-14.05-1.4-12.57 17.5 2.58 8.39 6.65 30.45 22.16 48.64 34.35 45.49 30.3 74.19 59.13 88.18 89.42 10.5 22.56 11.55 27.35 11.55 60.24 0 34.73-.36 36.21-15.4 67.62-17.85 36.94-36.38 56.53-68.58 72.79-27.99 14.03-66.85 15.14-96.59 1.85m78.04-34.75c27.64-14.4 50.05-38.8 64.74-69.84 24.15-51.71 18.9-91.99-18.54-134.12-15.06-17-58.1-44.34-69.99-44.34-2.45 0-8.76 4.45-13.66 10.34-10.49 11.83-114.79 165.55-123.52 182.17l-5.95 11.09 13.3 12.19c6.99 6.65 25.89 19.22 41.99 27.71 28.69 15.9 28.69 15.9 61.93 14.42 26.26-.74 36.75-2.97 49.7-9.62M6769.77 4627.13c-43.05-36.94-202.26-161.47-210.32-164.78-7.34-2.6-13.29-2.6-22.75 1.09-22.73 8.5-16.79 1.11 18.2-22.89 32.55-22.55 49.34-28.83 33.24-13.32-8.4 8.49-8.74 10.35-2.8 18.49 7 9.59 65.8 58.74 69.99 58.74 2.45 0 18.9-9.98 36.74-22.18 24.85-16.99 32.2-23.64 30.8-28.81-1.05-3.32-5.95-26.24-10.84-50.62-5.25-24.38-11.55-46.19-14.36-48.78-5.94-4.43-1.39-8.87 36.76-35.46 22.73-15.9 29.03-14.42 14.33 3.31-7.69 9.24-10.48 16.63-10.48 26.62 0 12.18 32.54 187.7 46.88 253.1 3.15 14.03 5.6 27.72 5.6 30.66 0 8.13-7.7 6.29-20.99-5.17m-28.7-87.56c-15.05-68.37-10.16-63.94-44.43-41.02l-29.06 19.59 25.2 21.8c38.13 32.51 57.74 48.76 58.43 48.03 0 0-4.19-21.8-10.14-48.4M9314.51 4579.1c-8.05-5.91-22.75-14.41-32.19-19.21-22.41-11.09-26.25-19.58-7.01-16.26 13.31 2.21 13.66 2.21 25.55-17.38 16.44-27.33 78.74-142.61 97.28-179.57l15.06-30.66-8.41-9.24c-4.55-5.18-7.35-9.97-6.3-11.08 1.05-1.12 16.45 7.01 34.65 17.73 18.2 10.73 35.69 20.69 39.2 22.18 9.09 3.69 7.33 11.44-1.76 8.12-28.7-9.23-20.65-19.21-103.23 132.65-41.64 76.48-47.95 93.11-38.15 101.61 5.95 5.17 7.37 11.46 3.16 11.46-1.74 0-9.46-4.81-17.85-10.35M7025.22 4461.6c-45.49-17.37-83.99-66.14-94.83-120.09-12.95-63.91 20.65-129.7 84.68-165.91 38.5-21.43 82.59-34.36 92.39-26.59 5.95 4.41 29.74 42.85 29.74 48.02 0 6.29-6.66 5.55-9.11-.73-1.04-2.96-8.05-9.97-15.74-15.16-11.55-8.86-16.1-9.96-31.84-8.49-24.84 2.22-61.94 21.81-79.43 41.75-7.71 8.87-18.21 24.76-23.81 35.85-8.73 17.73-9.8 22.91-9.8 58.38 0 36.95.71 40.27 12.61 66.88 24.15 53.57 48.64 71.68 95.87 71.68 23.81-.38 31.51-1.84 51.79-12.2 31.85-15.52 49.33-30.66 58.45-50.62 6.29-13.66 6.99-18.48 3.85-30.3-9.1-33.62-1.41-29.18 17.14 10.34 7.69 15.89 13.99 29.94 13.99 31.05 0 4.8-66.48 46.92-90.98 58.01-32.53 14.42-78.71 18.11-104.97 8.13M9012.85 4429.08c-12.58-4.44-27.29-11.08-33.24-14.04-5.6-2.95-19.24-8.49-29.73-12.19-10.5-3.33-21.7-8.86-24.5-11.82-4.56-4.44-3.51-4.81 9.45-2.59 18.89 2.96 22.04.37 33.58-28.82 23.8-60.98 69.3-185.48 72.8-201 4.19-16.64 3.84-17.38-5.95-26.24l-10.15-8.87 8.75 1.49c12.25 2.58 74.53 28.07 78.39 32.14 5.6 5.91 0 7.75-10.5 3.68-16.44-6.65-23.1.37-40.6 43.6-24.15 59.86-24.15 54.32 2.45 63.56 22.75 8.13 22.75 8.13 34.29.74 5.95-3.7 29.4-18.84 52.14-33.25 43.4-28.08 60.19-34.36 80.15-29.94 19.59 4.44 52.83 21.07 50.38 25.14-1.39 2.58-5.25 2.58-10.85.35-14.34-5.91-33.24-4.05-53.89 4.81-20.64 8.87-93.07 52.11-100.77 59.5-3.85 4.06-3.5 8.86 2.45 27.34 11.89 36.95 8.74 66.5-9.11 92.01-17.84 24.74-53.88 30.29-95.54 14.4m49.71-19.21c29.74-16.26 48.99-79.44 31.85-104.57-8.77-12.93-30.81-23.65-47.6-24.01-13.66-.38-14.01 0-22.04 19.95-24.86 63.17-36.39 97.55-33.26 100.87 1.76 1.84 11.9 6.64 22.05 10.34 19.24 7.02 32.2 6.29 49-2.58M7347.15 4354.07c0-1.83 5.26-5.53 11.55-8.49 10.85-5.17 11.19-6.28 10.5-25.13-1.05-23.64-43.73-217.27-51.79-233.15-4.2-8.87-7.69-11.46-16.1-11.46-14.35 0-9.8-6.64 6.66-9.6 6.99-1.11 25.18-5.55 40.58-9.61 32.55-8.51 45.84-7.02 24.15 2.57-18.56 8.14-18.91 11.46-6.3 76.5 13.29 69.47 12.61 67.62 26.6 66.52 15.04-1.11 133.32-30.31 137.17-33.62 2.45-2.6-10.15-69.11-19.95-103.85-8.04-28.44-11.54-33.24-23.79-33.24-19.25 0-6.3-6.28 33.93-16.63 47.95-12.57 44.45-11.82 46.2-6.65.71 2.21-3.15 5.17-9.44 6.65-17.5 4.06-18.21 9.98-6.99 68.73 13.28 70.94 41.64 192.5 46.17 198.41 2.1 2.22 8.41 4.43 14.36 4.43 19.24 0 5.6 7.03-29.05 14.43-18.2 4.05-37.09 8.49-41.64 9.96-6.3 1.85-8.05 1.49-6.65-2.57 1.06-2.97 4.55-5.94 8.41-6.67 13.28-2.58 16.08-8.12 13.64-28.07-2.46-21.81-15.75-80.19-18.91-83.88-1.03-1.47-14.69.74-30.08 4.43-15.4 3.69-48.29 12.2-73.15 18.1-24.84 6.29-45.49 11.83-46.18 12.56-2.09 2.23 19.94 96.45 23.44 101.25 2.45 2.59 8.4 4.8 14 4.8 5.59 0 10.15 1.86 10.15 3.71 0 2.21-2.8 3.69-5.95 3.69-3.51 0-21.7 4.06-40.59 9.24-37.1 9.97-40.95 10.71-40.95 6.64M8766.16 4337.81c-5.6-1.85-19.6-4.79-30.46-7.02-22.38-4.8-26.94-11.08-8.04-11.08 15.4 0 21.35-8.87 27.99-43.6 2.8-14.4 10.16-46.55 15.75-71.69 19.26-82.77 17.85-116.01-5.95-141.14-16.79-17.73-34.29-25.5-57.03-25.87-28.35 0-54.24 17.37-68.25 45.82-5.6 11.45-32.19 119.73-40.23 165.16-4.9 25.14-2.81 41.76 5.24 41.76 5.26 0 10.51 6.66 7.7 9.6-.71 1.13-14-1.48-29.04-5.54-15.4-4.06-33.95-8.5-41.29-10.34-7.71-1.85-14.71-5.53-15.41-8.13-1.39-4.07.7-4.44 8.05-2.58 16.81 4.44 24.86-4.8 31.49-37.33 3.15-15.89 12.61-57.27 21.01-92.37 16.79-69.83 25.54-88.68 51.45-108.26 38.13-29.2 104.97-20.7 141.36 17.74 33.61 35.83 35.35 68.35 10.84 183.27-9.44 42.49-16.43 80.55-15.73 84.98.69 4.42 4.54 9.24 9.09 11.46 17.15 8.12 3.5 12.2-18.54 5.16M8354.97 4259.85c-18.19-1.83-36.74-4.07-41.28-5.17-11.55-2.59-5.96-8.86 8.05-8.86 8.05 0 13.29-2.23 15.39-6.66 5.25-10.35 18.55-222.82 17.14-270.48-1.39-48.03-6.29-62.44-29.04-85.72-18.9-19.21-9.09-20.68 12.94-1.84 36.05 31.04 51.8 63.18 51.8 105.68 0 11.44-2.45 50.61-5.25 87.2-2.81 36.57-6.3 90.89-7.69 120.83l-2.1 54.31 10.15 2.58c14.34 3.7 16.79 5.55 11.53 9.24-2.78 1.85-5.58 2.96-6.64 2.59-1.04 0-16.79-1.84-35-3.7M7849.31 4255.42c-40.59-13.68-67.89-38.8-87.83-82.03-23.44-49.51-19.59-106.42 9.8-152.98 32.9-52.46 96.59-75 161.32-57.27 95.89 26.23 136.83 168.49 71.04 247.57-16.44 19.96-48.63 39.17-76.29 46.19-20.64 4.81-61.24 4.06-78.04-1.48m66.49-15.15c25.89-7.39 44.81-20.7 58.44-41.75 28.69-43.97 31.85-117.14 7.35-168.49-21.69-45.46-67.55-66.89-114.08-52.48-51.09 15.51-82.94 67.62-82.94 134.88 0 68.34 27.66 114.17 76.64 128.21 21.7 6.29 30.1 6.29 54.59-.37" style="transform-box:fill-box;transform-origin:50% 50%"/><path d="M9293.59 4651.06c-5.01-5.7-9.18-12.27-9.18-14.9 0-2.62-2.92-7-6.26-10.07-6.26-5.69-8.77-21.9-2.92-21.9 1.67.44 12.1 9.2 22.95 19.71 17.52 16.65 19.61 20.59 15.44 28.47-5.84 11.39-9.18 10.95-20.03-1.31"/></g></g></svg>